<svg xmlns="http://www.w3.org/2000/svg" xmlns:xlink="http://www.w3.org/1999/xlink" id="Layer_1" x="0px" y="0px" viewBox="0 0 512 512" style="enable-background:new 0 0 512 512;" xml:space="preserve"><g>	<g>		<g>			<path d="M435.875,122.169H169.924c-38.988,0-70.707,31.719-70.707,70.707v5.776H75.338V84.492V10c0-5.522-4.477-10-10-10h-49.92    c-5.523,0-10,4.478-10,10v74.492V414.1c0,48.307,39.3,87.606,87.606,87.606h107.959V502c0,5.522,4.477,10,10,10H331.41    c5.523,0,10-4.478,10-10v-70.506c0-5.522-4.477-10-10-10H210.983c-5.523,0-10,4.478-10,10v0.292h-97.924    c-15.285,0-27.721-12.436-27.721-27.721V266h23.879v4.432c0,38.987,31.719,70.706,70.707,70.706h78.964    c14.519,0,26.331-11.812,26.331-26.33v-28.989c0-7.866,6.4-14.266,14.266-14.266h26.612c7.866,0,14.266,6.399,14.266,14.266    v28.989c0,14.519,11.812,26.33,26.331,26.33h79.182c38.988,0,70.707-31.719,70.707-70.706v-77.556    C506.582,153.888,474.863,122.169,435.875,122.169z M220.983,491.707v-49.921v-0.292H321.41V492H220.983V491.707z M25.418,20    h29.92v54.492h-29.92C25.417,74.492,25.417,20,25.418,20z M103.059,451.786h97.924v29.921H93.023    c-37.278,0-67.606-30.328-67.606-67.606V94.492h29.92v309.573C55.338,430.378,76.745,451.786,103.059,451.786z M99.083,246    H75.338v-27.348h23.745V246z M486.582,270.432c0,27.959-22.747,50.706-50.707,50.706h-79.182c-3.491,0-6.331-2.84-6.331-6.33    v-28.989c0-18.895-15.372-34.266-34.266-34.266h-26.612c-18.895,0-34.266,15.371-34.266,34.266v28.989    c0,3.49-2.84,6.33-6.331,6.33h-78.964c-27.959,0-50.707-22.747-50.707-50.706v-77.556c0-27.96,22.747-50.707,50.707-50.707    h265.952c27.959,0,50.707,22.747,50.707,50.707V270.432z"></path>			<path d="M146.138,204.772c-5.523,0-10,4.478-10,10v35.685c0,5.522,4.477,10,10,10s10-4.478,10-10v-35.685    C156.138,209.25,151.661,204.772,146.138,204.772z"></path>			<path d="M280.312,158.511h-89.123c-5.523,0-10,4.478-10,10c0,5.522,4.477,10,10,10h89.123c5.523,0,10-4.478,10-10    C290.312,162.989,285.834,158.511,280.312,158.511z"></path>			<path d="M358.842,158.511h-34.316c-5.523,0-10,4.478-10,10c0,5.522,4.477,10,10,10h34.316c5.523,0,10-4.478,10-10    C368.842,162.989,364.365,158.511,358.842,158.511z"></path>			<path d="M278.316,457H244c-5.523,0-10,4.478-10,10c0,5.522,4.477,10,10,10h34.316c5.523,0,10-4.478,10-10    C288.316,461.478,283.839,457,278.316,457z"></path>		</g>	</g></g><g></g><g></g><g></g><g></g><g></g><g></g><g></g><g></g><g></g><g></g><g></g><g></g><g></g><g></g><g></g></svg>