<svg xmlns="http://www.w3.org/2000/svg" fill="currentcolor" aria-hidden="true" viewBox="0 0 24 24" style="height:19px;width:19px"><path fill-rule="evenodd" d="M5.5 5H5v8h14V5zM18 12H6V6h12zm5.9 6.69l-.04-.05-.11-.14-.4-.51-1.2-1.55L21 14.97V4a1 1 0 0 0-.99-1H3.99C3.44 3 3 3.45 3 4v10.95l-.19.24c-.6.76-1.2 1.53-1.76 2.26l-.16.21c-.29.37-.55.72-.79 1.04l-.1.13V19c0 1.35.65 2 2 2h20c1.17 0 2-.71 2-2v-.17l-.11-.14zM4 4h16.01C20 4 20 11.92 20 14H4zm18 16H2c-.73 0-.96-.2-.99-.85.21-.28.43-.56.66-.87l.16-.21a229.93 229.93 0 0 1 2.33-2.98l.07-.09h15.51l1.6 2.06 1.2 1.55a4708182.18 4708182.18 0 0 1 .42.54c-.05.59-.38.86-.98.86zm-7.52-3.62A.5.5 0 0 0 14 16h-4a.5.5 0 0 0-.49.38l-.5 2a.5.5 0 0 0 .49.62h5a.5.5 0 0 0 .49-.62l-.5-2zM10.14 18l.25-1h3.22l.25 1z"></path></svg>