<svg xmlns="http://www.w3.org/2000/svg" width="538" height="717" viewBox="0 0 538 717" fill="none"><path d="M355.787 598.267C270.667 526.584 272.161 359.333 279.625 275.707L285.599 272.722L294.558 268.243L287.089 286.164L312.474 274.217L307.995 296.618L330.396 289.149L321.438 326.482L339.359 313.045L327.411 342.909L342.343 336.935L327.411 372.774L345.333 366.8L336.374 410.106C393.12 353.361 366.238 272.72 318.453 253.306L357.281 266.744L343.844 248.822L388.646 263.754L373.714 245.833L420.001 269.74L409.548 245.844L451.36 268.245L440.907 250.324L478.24 268.245L469.282 248.833L502.137 271.234L497.657 257.797L537.975 281.693C537.975 281.693 533.495 263.772 529.016 256.308C529.016 256.308 440.912 177.162 318.456 208.521L303.524 198.068L342.352 196.573V184.625L361.764 178.651L351.311 162.225L390.139 153.266L375.207 129.37L411.046 123.396L390.139 106.97L430.457 109.954L409.55 96.5167L464.805 100.991L448.378 80.084C357.284 54.6987 294.565 141.313 263.205 199.553C284.111 141.313 302.033 51.7133 228.855 6.91333L198.986 0.939331L225.866 21.846L196.002 8.40866L234.83 56.1953L201.975 29.3153L233.335 72.622L204.961 48.726L234.825 95.018L210.929 80.086L240.803 123.393L215.418 111.445L236.325 150.273L216.913 144.299L246.777 192.085L228.855 181.632L242.293 210.007C155.683 93.5284 22.7725 112.939 22.7725 112.939C13.8141 115.929 0.376511 127.871 0.376511 127.871L46.6685 129.366L34.7206 138.324L75.038 136.829L57.1166 147.283L97.434 153.257L79.5127 162.215L125.805 166.694L104.898 181.626L157.163 187.6L134.762 195.069L179.565 207.017L158.658 214.486L209.429 227.923L182.549 229.418L204.95 233.897C175.086 245.845 133.267 277.204 79.5127 350.376L113.862 335.444L110.878 356.35L133.279 323.496L142.237 345.897L175.092 295.126L188.529 327.981L215.409 272.726L233.331 301.101C233.331 301.101 233.331 299.606 234.825 296.622C236.32 356.356 243.784 435.502 254.237 504.195C269.169 596.783 403.571 716.248 403.571 716.248H537.971C440.908 689.368 355.784 598.275 355.784 598.275L355.787 598.267ZM285.599 248.827H287.093C287.093 250.316 287.093 250.316 285.599 248.827ZM308 250.316L310.984 251.811C310.984 250.316 309.495 250.316 308 250.316ZM293.068 214.478C290.084 215.972 287.094 217.462 284.11 217.462V215.967L293.068 214.478Z" fill="#D5CBBA"></path></svg>