<svg xmlns="http://www.w3.org/2000/svg" width="718" height="669" viewBox="0 0 718 669" fill="none"><path d="M693.173 207.4L717.069 235.775L708.111 208.895C676.751 161.108 611.043 164.092 564.751 171.561L555.793 165.587H594.621L561.761 155.134H599.094L567.734 144.681L614.026 146.176L573.709 129.749L631.949 140.202L593.121 122.281L633.438 131.239L596.105 110.333L664.798 123.77L612.533 101.369L657.335 108.838L612.533 86.4362L676.746 108.838L633.439 81.9576L687.199 99.8789L640.907 78.9722L697.653 90.9201L642.402 72.9988L682.719 59.5614C618.506 41.6401 558.771 117.801 530.399 164.092C528.904 41.6388 425.869 1.31877 425.869 1.31877C418.4 -3.16043 404.962 26.7041 404.962 26.7041L425.869 25.2093L403.467 43.1306L434.827 35.6618L419.895 47.6097L445.281 46.1149L422.879 64.0362L455.734 59.557L421.385 75.9837L463.197 72.9941L431.837 84.942H463.197L431.837 90.916C393.009 71.504 354.186 72.9946 313.863 96.89L337.759 93.9056L325.811 101.374L348.213 96.8952L339.254 104.364L373.598 102.859L360.161 119.285L407.948 114.806L387.041 122.275L431.844 114.806L427.364 116.301H430.349L397.494 132.728L434.827 131.233L412.426 150.645L439.306 140.192L424.374 159.604L451.254 144.672L431.842 164.084C330.295 140.188 298.935 213.365 298.935 213.365L328.799 190.964L321.331 208.885L337.757 195.448V214.86L360.159 192.459L354.185 217.844L384.049 186.484L372.101 208.885L393.008 183.5L384.049 214.86L415.409 182.005L401.972 214.86L430.346 180.511L415.414 219.339L431.841 192.459L424.372 229.792L446.774 195.443L439.305 232.776L469.169 199.921V217.843C433.33 268.613 346.715 331.337 351.195 600.136C330.289 600.136 310.878 601.631 292.955 606.11C273.543 464.243 209.33 371.657 160.049 317.897L158.554 311.923L161.538 308.938L170.497 326.859L173.481 304.458L180.95 326.859L185.429 304.458L195.882 331.338L198.867 308.937L201.851 331.338L206.33 314.911L212.304 334.323L213.799 313.417L228.731 335.818L224.252 307.443L240.679 337.307L236.199 320.881L255.611 350.745L260.091 335.813L273.528 356.719V347.761L280.997 362.693V352.24L289.955 367.172C282.486 304.453 233.21 282.052 170.486 280.557H171.981L152.585 274.594L180.959 270.115L155.574 264.141L182.454 261.156L158.558 256.677L191.413 253.693L160.053 246.224L203.359 247.719L173.495 238.76L203.359 241.745L173.495 229.797L224.266 232.781L183.949 220.833L216.803 222.328L183.949 210.38L233.23 220.833L198.881 205.901L239.198 211.875L203.359 201.422L245.171 204.407L203.359 195.448L231.734 182.011C186.931 176.037 154.083 226.813 136.161 264.147C98.8219 196.944 27.1392 199.928 27.1392 199.928C21.1652 199.928 21.1652 222.329 21.1652 222.329L34.6025 214.861L25.6441 232.782L43.5655 219.345L37.5915 231.293L54.0181 222.334L45.0597 240.255L65.9664 228.308L48.0451 249.214L73.4304 234.282L55.5091 252.204L76.4211 244.73L57.0091 259.662L82.3944 247.714L57.0091 265.635L89.8584 249.208L61.4837 277.583L97.3224 253.687L77.9104 283.551L107.774 258.166L94.3371 286.54C22.6597 286.54 4.73839 334.327 0.258392 344.78V346.275L12.2063 334.327L9.22185 344.78L21.1697 331.343L19.6749 338.812L37.5963 320.891V337.317L62.9816 313.421L54.0232 326.859L77.9192 301.473L65.9713 328.353L86.878 310.432L82.3988 331.339L92.8519 313.417V331.339L101.81 310.432L100.315 332.833L116.742 308.937L115.247 325.364C36.102 391.072 80.898 447.817 80.898 447.817L76.4188 420.937L85.3772 432.885L82.3928 417.953L94.3407 425.422L86.8719 403.021L100.309 414.968L91.3508 385.104L101.804 400.036L92.8455 379.13L109.272 395.556L98.8191 364.192L115.246 385.099L101.808 355.235L121.22 377.636L109.273 358.224L130.179 376.146L116.737 349.26L139.138 367.182L128.685 337.318L145.111 346.276V344.781C198.871 428.407 240.685 577.741 251.138 621.048C225.753 632.996 207.831 649.423 198.873 668.835H497.539C488.581 649.423 469.165 631.501 443.779 619.553C378.071 476.193 433.326 337.313 476.634 264.14L485.593 262.645L478.124 285.047L493.056 277.578L485.587 311.927L493.056 308.943L487.082 335.823L496.04 325.37L482.603 365.687L497.535 341.791L500.519 371.655L509.478 355.228L521.425 386.588L518.441 352.239L528.894 367.171L524.415 337.307L533.373 350.744L522.925 316.406L540.847 337.312L530.394 291.02L540.847 301.473V305.953L542.342 302.968L543.836 304.463L542.342 301.479L563.248 256.676L558.769 301.479L582.665 264.145L570.717 322.385L594.613 268.625L575.201 353.745L603.576 304.464L594.617 380.625L618.513 319.396L611.045 368.677L628.966 340.303L624.487 383.609L646.888 358.224L639.419 388.088L663.315 373.156C658.836 322.385 640.914 286.541 617.023 259.661L599.102 199.927L634.941 270.115L615.529 220.833L637.93 264.14L624.493 208.885L651.373 271.604L637.935 223.817L658.842 268.62L639.43 199.927L673.779 270.115L651.378 199.927L687.19 259.661L661.805 199.927L703.617 258.167L675.242 204.407L709.591 252.193L693.173 207.4ZM125.707 316.411V317.905C124.212 317.905 124.212 319.4 122.722 319.4L125.707 316.411ZM127.196 291.025C125.706 291.025 125.706 291.025 127.196 291.025V283.556V291.025ZM122.717 279.077L121.227 289.53H119.732L122.717 279.077ZM115.253 289.53H109.279L118.238 273.103L115.253 289.53ZM112.264 267.134L104.8 288.04H95.8416L112.264 267.134ZM531.89 270.118L533.385 273.103L531.89 270.118ZM531.89 249.211L533.385 247.717L534.88 249.211L533.385 258.17L531.89 249.211ZM491.568 138.706L490.073 137.211L497.542 132.732L491.568 138.706ZM479.62 168.57L470.661 176.039C467.677 174.544 466.182 174.544 463.193 173.055L479.62 168.57ZM488.583 183.502L494.557 182.007L493.063 186.492H491.568C490.073 186.492 488.583 184.997 488.583 183.502ZM540.849 207.398V198.44L545.328 210.388C543.833 207.398 542.343 207.398 540.849 207.398V207.398ZM554.286 198.435L561.755 216.356C560.26 214.861 558.77 214.861 557.276 213.371L554.286 198.435ZM570.713 208.893L578.182 226.814C575.197 225.319 573.702 223.83 570.713 222.335V208.893ZM540.849 177.529C539.354 177.529 537.864 177.529 537.864 179.024L536.369 177.529H540.849ZM497.541 146.17L500.526 141.69L497.541 146.17ZM484.099 129.743C482.604 128.248 479.619 126.759 478.125 123.769L496.046 117.795L484.099 129.743ZM469.167 90.9202L442.287 96.8942C439.302 95.3994 436.313 92.4098 433.328 90.9202H469.167ZM446.765 99.8786L478.129 98.3838L457.223 107.342C454.233 104.358 451.249 101.373 446.764 99.8786H446.765ZM485.593 107.347L470.661 117.801C467.677 116.306 466.182 113.321 463.193 111.827L485.593 107.347ZM437.807 165.587L472.156 155.134L457.224 170.066C449.755 170.066 443.781 167.077 437.808 165.587L437.807 165.587ZM540.848 298.494L534.874 279.082L537.858 273.108H539.353V270.124L546.822 250.712L540.848 298.494ZM590.129 235.77L587.145 217.849L596.103 240.25C593.114 238.761 591.619 237.266 590.129 235.771V235.77ZM617.009 259.666C611.035 253.692 606.556 247.718 600.583 243.239L594.609 211.879L617.009 259.666Z" fill="#D5CBBA"></path></svg>