<svg xmlns="http://www.w3.org/2000/svg" fill="currentcolor" aria-hidden="true" viewBox="0 0 24 24" style="height:19px;width:19px"><path fill-rule="evenodd" d="M12 15a3 3 0 1 0 0 6 3 3 0 0 0 0-6zm0 5a2 2 0 1 1 0-4 2 2 0 0 1 0 4zm5.92-5.78a.5.5 0 1 1-.84.55C15.89 12.96 14.01 12 12 12s-3.89.96-5.08 2.78a.5.5 0 0 1-.84-.55C7.46 12.13 9.66 11 12 11s4.54 1.13 5.92 3.23zm2.98-3.03a.5.5 0 1 1-.79.61C18.45 9.66 14.89 8 12 8c-2.83 0-6.26 1.62-8.12 3.82a.5.5 0 0 1-.76-.65C5.17 8.75 8.87 7 12 7c3.19 0 7.05 1.8 8.9 4.19zm2.95-2.33a.5.5 0 0 1-.71-.02C20.2 5.77 16.43 4 12 4S3.8 5.77.86 8.85a.5.5 0 0 1-.72-.69C3.26 4.89 7.28 3 12 3s8.74 1.89 11.86 5.16a.5.5 0 0 1-.02.71z"></path></svg>