<svg xmlns="http://www.w3.org/2000/svg" viewBox="0 0 512 512"><path d="m437.019531 74.980469c-48.351562-48.351563-112.640625-74.980469-181.019531-74.980469s-132.667969 26.628906-181.019531 74.980469c-48.351563 48.351562-74.980469 112.640625-74.980469 181.019531s26.628906 132.667969 74.980469 181.019531c48.351562 48.351563 112.640625 74.980469 181.019531 74.980469s132.667969-26.628906 181.019531-74.980469c48.351563-48.351562 74.980469-112.640625 74.980469-181.019531s-26.628906-132.667969-74.980469-181.019531zm-21.214843 340.824219c-42.683594 42.6875-99.4375 66.195312-159.804688 66.195312s-117.121094-23.507812-159.804688-66.195312c-42.6875-42.683594-66.195312-99.4375-66.195312-159.804688s23.507812-117.121094 66.195312-159.804688c42.683594-42.6875 99.4375-66.195312 159.804688-66.195312s117.121094 23.507812 159.804688 66.195312c42.6875 42.683594 66.195312 99.4375 66.195312 159.804688s-23.507812 117.121094-66.195312 159.804688zm0 0"></path><path d="m197.199219 298.738281 21.214843 21.214844c10.039063-10.042969 23.386719-15.570313 37.585938-15.570313s27.546875 5.527344 37.585938 15.570313l21.214843-21.214844c-15.707031-15.707031-36.589843-24.355469-58.800781-24.355469s-43.09375 8.648438-58.800781 24.355469zm0 0"></path><path d="m100.132812 201.671875 21.210938 21.210937c35.96875-35.96875 83.792969-55.777343 134.65625-55.777343s98.6875 19.808593 134.65625 55.777343l21.210938-21.210937c-41.632813-41.636719-96.988282-64.566406-155.867188-64.566406s-114.234375 22.929687-155.867188 64.566406zm0 0"></path><path d="m148.664062 250.203125 21.214844 21.214844c23.003906-23.003907 53.589844-35.671875 86.121094-35.671875s63.117188 12.667968 86.121094 35.671875l21.214844-21.214844c-28.671876-28.667969-66.789063-44.457031-107.335938-44.457031s-78.664062 15.789062-107.335938 44.457031zm0 0"></path><path d="m241 344.894531h30v30h-30zm0 0"></path></svg>