<svg xmlns="http://www.w3.org/2000/svg" xmlns:xlink="http://www.w3.org/1999/xlink" id="Layer_1" x="0px" y="0px" viewBox="0 0 485.036 485.036" style="enable-background:new 0 0 485.036 485.036;" xml:space="preserve"><g>	<path d="M278.145,71.121c9.808-11.676,21.947-21.374,35.932-28.499c27.421-13.972,58.665-16.42,87.982-6.896l9.27-28.532   c-36.936-12.001-76.312-8.912-110.871,8.697c-24.251,12.357-44.103,30.839-57.939,53.524   c-13.837-22.685-33.688-41.167-57.939-53.524C150.019-1.717,110.644-4.807,73.708,7.195l9.27,28.532   c29.314-9.525,60.56-7.076,87.982,6.896c13.985,7.126,26.124,16.823,35.932,28.499C149.631,54.357,85.423,74.152,48.393,125.12   l24.27,17.634c28.343-39.011,76.75-55.005,120.921-44.153c-56.11,20.132-96.356,73.852-96.356,136.802h30   c0-58.489,43.781-106.941,100.291-114.316v246.477c-32.092,2.304-61.981,11.973-85.395,27.813   c-28.823,19.501-44.697,46.015-44.697,74.659v15H387.61v-15c0-28.644-15.874-55.158-44.697-74.659   c-23.414-15.84-53.302-25.509-85.395-27.813V121.088c56.51,7.375,100.291,55.827,100.291,114.316h30   c0-62.951-40.247-116.671-96.357-136.802c44.171-10.852,92.577,5.142,120.921,44.153l24.27-17.634   C399.614,74.152,335.406,54.357,278.145,71.121z M355.092,455.036H129.944c4.36-12.846,14.284-24.861,28.99-34.811   c22.116-14.962,51.8-23.202,83.584-23.202s61.468,8.24,83.584,23.202C340.808,430.176,350.732,442.19,355.092,455.036z"></path></g><g></g><g></g><g></g><g></g><g></g><g></g><g></g><g></g><g></g><g></g><g></g><g></g><g></g><g></g><g></g></svg>