<svg xmlns="http://www.w3.org/2000/svg" class="bk-icon -streamline-hospital_shield" fill="currentColor" viewBox="0 0 24 24" aria-hidden="true"><path d="M18 9a1.5 1.5 0 0 0-1.5-1.5h-2.25l.75.75V6a1.5 1.5 0 0 0-1.5-1.5h-3A1.5 1.5 0 0 0 9 6v2.25l.75-.75H7.5A1.5 1.5 0 0 0 6 9v3a1.5 1.5 0 0 0 1.5 1.5h2.25L9 12.75V15a1.5 1.5 0 0 0 1.5 1.5h3A1.5 1.5 0 0 0 15 15v-2.25l-.75.75h2.25A1.5 1.5 0 0 0 18 12V9zm-1.5 0v3h-2.25a.75.75 0 0 0-.75.75V15h-3v-2.25a.75.75 0 0 0-.75-.75H7.5V9h2.25a.75.75 0 0 0 .75-.75V6h3v2.25c0 .414.336.75.75.75h2.25zm-15-5.077v7.614c0 5.237 3.225 9.933 8.113 11.813l1.041.4a3.75 3.75 0 0 0 2.692 0l1.041-.4A12.657 12.657 0 0 0 22.5 11.537V3.923a2.234 2.234 0 0 0-1.306-2.044A22.463 22.463 0 0 0 11.993 0C8.846-.03 5.715.61 2.818 1.874A2.24 2.24 0 0 0 1.5 3.928zM3 3.918a.736.736 0 0 1 .43-.675A20.937 20.937 0 0 1 11.993 1.5a20.969 20.969 0 0 1 8.589 1.748c.252.116.42.38.418.67v7.619c0 4.616-2.843 8.756-7.151 10.413l-1.041.4c-.52.2-1.096.2-1.616 0l-1.041-.4A11.157 11.157 0 0 1 3 11.537V3.923z"></path></svg>